<mxfile host="app.diagrams.net" modified="2023-03-26T16:51:19.856Z" agent="Mozilla/5.0 (Windows NT 10.0; Win64; x64) AppleWebKit/537.36 (KHTML, like Gecko) Chrome/111.0.0.0 Safari/537.36" etag="0uBF78lEbpRmZohRd44y" version="21.1.0" type="google">
  <diagram name="Page-1" id="w_ys0i3Y8fxBrrLxKNy2">
    <mxGraphModel grid="1" page="1" gridSize="10" guides="1" tooltips="1" connect="1" arrows="1" fold="1" pageScale="1" pageWidth="850" pageHeight="1100" math="0" shadow="0">
      <root>
        <mxCell id="0" />
        <mxCell id="1" parent="0" />
        <mxCell id="rnFfyLZnU6G94Pxc_LtT-8" value="" style="group" connectable="0" vertex="1" parent="1">
          <mxGeometry x="-190" y="213" width="547" height="342" as="geometry" />
        </mxCell>
        <mxCell id="rnFfyLZnU6G94Pxc_LtT-5" value="" style="shape=image;verticalLabelPosition=bottom;labelBackgroundColor=default;verticalAlign=top;aspect=fixed;imageAspect=0;image=data:image/png,iVBORw0KGgoAAAANSUhEUgAAAiMAAAFWCAYAAAC7LZ1eAAAAAXNSR0IArs4c6QAAAARnQU1BAACxjwv8YQUAAAAJcEhZcwAADsMAAA7DAcdvqGQAACm4SURBVHhe7d1tcFxXnefxo8kQjwIBWoE4OLE9kfIAOJMdR8KhsNmkaqUZFuIXkLI3L5ZsbSjkKvaN34D8Mn4nm32Dq7a25KqFKnurdi0NbBXxQNVKsyEzEcmk5Dx6MomJFIgwwoFIBGJskli993d0//LV7dutbvXD6Yfvx3Wi7nOfzr1S5fx07rmtrnzEAQAABPJn8VcAAIAgCCMAACAowggAAAiKMAIAAIIijAAAgKAIIwAAICjCCAAACIowAgAAgiKMAACAoIJ9Auvc3JwvSblczvX398fvStO2S0tLZa8PAACaU7AwcujQIXfkyJH43VXlNqenp8eHkZmZGQIJAAAtLNhtmtHRUR88rAwODsZLytPb27taQpuYmHBdXV0FIz0AAGB9LTtnRCMis7Oz/tZOaGfOnPFfCSMAAFSubmFEHfPU1NRq0S2V0KwtFh7KYdsAAIA6ydfY7OxsfnBwUBM/1pRcLpcfHx+P1ypk25SifaT3OzMzEy8tbmxsrGDb/v7+Ndvu27dvdVlvb29+ZGRkzTaqS66vfdqyYkXbAwCA0mo6MqLRkIGBAT/yEHXW/lZKdAwXdex+ZKSSEYksk5OTq0VzTmS9ERdNkj1w4ICfk6LtFhcXfdvU1qGhodXttT8t12RYLdN2w8PDvi4KUX49Tbo1UXhZbYvWE9tHsgAAgHWsZJLasNGF9GhFFADyUUftR02KKWdkJCnq6P36+lqMjqd11K40217tSrJ2pOvt3LJoFGW9tgAAgGw1GxnRyIGeKtEoQfpR21wu50dHGv3ky/Hjx/1XjVikaaRE7Sk2H0TtTWqGp3YAAGhHNQsjdgummT7zw9rU19fnH71NF92OWe82DwAAqK+WfbS3HBqREY1yFCs23wMAAIRRszBiIyLFJqlqBEIjEY1kbdItGd2qSRcFES2rF02QtVtFAAAgW83CiEYh1Lmr883qgPfv3+8750ZSe9QuPU2TFYTUHi2rVtZ8EoUyzUdpdAADAKDVXPNoJH5dtT179vgOWGFkYWHBXb582b388svu8OHD7vTp02tGItRZHzt2bPVDxaanp/3oibaxOr3fsWOHX1/0uK32o2XaXqW7u9tvqzoFjy1btsRrO79Mx7OAZPNDtK4e09X2ulWjERRrT7Id+qp96LharmChen1Nzo3RcbWtzlWvtQ+ds67BiRMnfB0AACgifqqmZvQYb9TBF3xg2GjqUVmtY8uLFe3D2GO6pUoUduK119K2yQ81U1Gbkh/Cll6uEgUO3+50fbJdJv3Bato/j/oCALC+uv7VXo0gaFRApVlohCM5qlFrzXjOAAA0s7qGEQAAgPW09aO9AACg+RFGAABAUIQRAAAQFGEEAAAERRgBAABBEUYAAEBQNQsjX/3qV923v/3t+B0AAEB5avY5Ix/72Mfc7bff7p566qm4BgAAYH3cpgEAAEERRgAAQFCEEQAAEBRhBAAABEUYAQAAQRFGAABAUIQRAAAQFGEEAAAERRgBAABBEUYAAEBQhBEAABAUYQQAAATVkD+U9+obF9zks6/F7wpd173JPfK3A/E7AADQSRoyMnJu/oI7/+Zv3XKUe9Jl6ffvuPMX3orXBAAAnaZht2m6N21yt2+/paB8+IPXuRoNzgAAgBbUsDCivPHe+8sF5Uq0gCwCAEDnqvuckbfevuhOP/WSOzf/W3frtpvj2qt+/eZv3aXLf3IP/+1n4prybd2cc9dtujZ+BwAAWlHdw8hj0y+6J55/zX30wx+Ma2rjd7+/6L6+d7e7c9vmuAYAALSihoSR52cX3L13fzKuqY1/fvEVt//+vyaMAADQ4hoyZ0R558pybUuNMhQAAAisQWHEufevLNe0kEUAAGgPjQkj0b/3l6MQUcOifVbqzJkzbmpqyhe9Xlpa8l8rYdtr22Lm5uZW11tvXQAAOl3DRkauXMnXtFQyMjIxMeH6+vrcwMCAGxoa8kWvrS5J4aSrq2tNUd2hQ4dcT0/P6vbaNh1kFEJsma1n79UGAABQqEEjIy5zdKOaUm4WUUA4cOCA6+3tdePj4252dtYXvc7S39/vJicnfRkeHvZ12v7IkSNu3759fruRkZGCURUdR8FGdWNjY25mZsbPa8laFwAAXNWQp2meefWX7pO39cY1tfHKa3PuPw72r/s0jW6TaHRC4WJwcDCuXaHRDoWMYpfAlosChoUTUbhQcDH79+/3ox8KIcl6BZHjx4/7IKNABAAA1mrgBNZ8TUu5EUrBIJfLrY5uJOdwaNRC4WE9CjHJICLpwKEgonWS9aJj6zgEEQAAstU0jDz99NMF8y1WRhby7sryck3Lys2f9SkMaFREIUEjHRol0dwPzePQey1fj0Y1SrFbMOkgAgAA1lezMHLbbbe5hx56aHW+hRXVLddhZET7LJdCguZ66HaM2qRbLgoYGiWxeR6lMKoBAED91CyMXH/99W779u3+lkayqM7fplnOnoi60VLubRoFDY3QKHiI3XIZHR31t2g0MmLzQjbKRkSKhRrdxtEEVwAAUKghc0ZWbtPUtpR7m8bmh2QFDgURFVtno7QPBRxNVFVJ0+RW3R4CAACFGjaBNWveRzWl3JERY0/VKCzotcKJ3ms0Izk5VcFEyzSfxEY6NDlV71VshCVNIy0aIdFEWRVto6Igom3Wm3cCAECnqtmjverY1RmrU07So71P/ssv3Mdv2hLX1MZvfv0r98gXdpX9aK/apSCSvF2i9upJl2RQUABJfxBaktYt9hklFmR0HBtt0XwThR0dBwAAFGpIGPmns79wN9z4ibimNt56c8F97d+vH0ZEwcCemtFrBRKb51EvOobdBgIAAMU17DZN1iTUakolESoZCPS63kFENCJCEAEAYH2NCSN1mMC6kT+UBwAAmk9DwsiV999377y9VNOifQIAgNZX9zByw0c+5P7smj93V957t6ZF+7zuL66NjwIAAFpV3SewAgAAlNKQ2zQAAADFEEYAAEBQLRtG9PdmHnjggfgdAABoVYyMAACAoAgjAAAgKMIIAAAIijACAACCIowAAICgCCMAACAowggAAAiKMAIAAIIijAAAgKAIIwAAICjCCAAACIowAgAAgiKMAACAoAgjAAAgKMIIAAAIqi3DyFtvX3SvvnGhaJl/cyleEwAAhNaVj8SvqzI0NOT6+/vd6OhoXFNfXV1d7ktf+pI7ffp0XHPVY9MvuqmZV+J32f7Dvxtwn7urN34HAABCadvbNLffcqM7+o0HC8r9O+/0y0/9w4z76dk5/xoAAITTkXNGFFTu/fStBBIAAJpAx05gffD+ewgkAAA0gbYOI5oOky5R7eqyr9y3k0ACAEBgHTsyYkIHkrm5OTc1NbWmnDlzJl5aHu2j0m0AAGgWHR9GJGQgOX78uH8SKVkGBgbipeXR+ioEEgBAK2rbMGI3ZMotX44Cya4AgUSPQidvIw0ODsZLytfb27taQpuYmPCPXWu0BgCAcjAykqARkhCBpFozMzNudnbW5XK5uCYcG50hjAAAykUYSal1IEnPCVlaCv/prxuZm2LbNAtdx0rPAQDQnAgjGWoRSBRCNP+jr69vzXwQvdetjGr19PT42yHJsl7HrPkp2s7akjXXZP/+/av7U1sPHTq0ZhvVpY+j/do2R44c8XVa1+pUtI+NKtUmtT/rmtrtomSxdmubZL32DwAIpyPDyOLvL7ofP322ZOne9AFfFEie/9l8vGV5FESskx8bG/O3UTQfZGRkxP9Gv15oKMfk5ORqsY/gLzXqopBw4MABPydF2ywuLvq2WWiybbUvLddH+2uZthseHvZ14+Pjfj2FgaR9+/attkXriu0nWTYqq026lqpTm3R7SoEiGUjsPNU2zaWx7UXnre1F9Xb9AABhtO3fpvn5rxfd1/buiWuueubl191Ls+fjd+s7/5slt/uv+tze3XfHNeuzjlEhxDpAUUeuUQTrILPoOur2QyXfFq2v7dSxZk2AVQeu0QMdV513km2r75t10GLtSNfbuRVrn4KKwkKxtlTD2qRz0LkYXVeFP9HcmSQ7P9Unr7mNhqSvBwCg8dp7ZMQelUmUXZ+61X3tgT1ll5s/XtmkUHWM6qw1QpAMIqLf4NWxN/qpFwUgyQqKCgxqjzrtLMkgIo1ue5ZkEBG7rgpd6fOw87NrIPY9qnVYAgBsTPuGkSh46Lf3aosPMRWwWzDpIBKStUmjI8m5ElbUiauDbmUWkrJClYJhMowoiCjApEMNACCMlg4jzzzzjB+CT5dTp07Fa0DskV+NHhQrNtej1dm5JuncbDREFFgURLLWBQA0XkuHkZtvvtmPQKTLTZtvitdoPB1fik1SVaeokYhGsjbptoRu1aSLOut637JQSEyOTlQjaxTHRkSyzkOhQ+eoMMItGgBoPi0dRnbt2pXZud53/33xGo1nHZ863qzOVxMn1TE3ktqjdulpmqwgpPZoWS1kzSlRMFNYKBbCFBDUhqzHhrPY48NG2+haK2BY8ErTSIhCiLbVteAWDQA0j2sejcSvq3Ly5Em3ZcuWhv3GefjwYd/x7N27N6656tz8Bbf0ziW3845tcc3GPXdu3uWu73Z3btsc16xvz549vvNVB7mwsOAuX77sXn75Zd9mPf2THIlQR3rs2DG/vsr09LTvnLWN1en9jh07/PpGnar2peXah0p3d7ffXnXqcPX9ENXreBaQbGRB6+npF22rWzW6ntaeZDv0VfvQMbVcoUL1+pru/HVcba/z1WvtR+et63DixAlfl2br6DhaXuxnSD9jOqbW1/7UJp3PwYMH/XLt3845TSFJ22tbBZGsnxsAQCD5Gok6kHzUocXv6k9Njzr1+N1aP3zyhfx3Jh7P/+HSu1UX7Uf7q9Ti4qK/HlHn6tuqEnWI+dHR0XiNFVrHlhcr2kfS7Oxs5nrJknVttF3UEa9ZT20aHx+P18gXLFeJAodvd7o+3S4zNjZWcN6Tk5Px0kK6VjqGtpmZmYlrC+lnTPtTW5L7V5t1buuxc0ieLwAgvJb+nBGNMOgDrNL0OSOvLyy6Rx7YHdds3HdPT7tbP9FT0eeMpOm3+ajzzBwVCEUjHOlRjVqr9XnrZ0yjOfYjW+k5aGRHRR/4BgBoHu39OSNNQrcImimISL2DiNT7vCs9B80ZYa4IADQfwgjaluaTaCRENIqiQhgBgOZDGEHT0+0em8greq269egJIZuga3+Xp9jkWABAOG0cRrI/UbXSsjJHEiEpSGi+iEKF6LXKevSEkNjfreHv0ABAc2JkBE1PIUJ/eC9d1qPJ1Lau/mhhs83bAQCsaNunaZ49N+/u6s3+zIlKnJ37lbvnjq1VPU0DAACKa8uRkRs+8iGXu/46d/43v6u6aD/aHwAAqI+2HBkBAACtgzkjAAAgKMIIAAAIijACAACCIowAAICgCCMAACAowggAAAiKMAIAAIIijAAAgKAIIwAAICjCCAAACIowAgAAgiKMAACAoAgjAAAgKMIIAAAIijACAACCIowAAICgCCMAACAowggAAAiKMAIAAIIijAAAgKAIIwAAICjCCAAACKotw8hbb190r75xoWiZf3MpXhMAAITWlmHkp2dn3fd+9JSbnPnXgvK//2HG/df/NRmtMxevDQAAQmrb2zS3fPyj7ut7P19Q7u67xXVvutadikIJgQQAgPA6cs6IgsqD999DIAEAoAl07ATWez99K4EEAIAm0NZhJJ/PF5SodnXZrk/9pfvKfTsJJAAABNSxIyNGIyStHkjm5ubcmTNn4ncAALSWjg8j0uqBZGBgwBcCCQCgFbVtGLEbMuWWXS0cSHp7e1cLAACthpGRhFYNJDMzM252dtblcrm4BgCA1kEYSalVIFlaWnJTU1P+q9F7ze/IolssWq7SiNstdqx6sfPn1hEAYD2EkQwbDSRdXV2+aP5GX1+fGxoa8l8nJiZcT0+Pf581t8Pq9dVea/0jR47EaxTScjuelayOf//+/avL1ZZDhw6ttkVFddUGhlLHsGuha2D02ta3Ym3Q+sl67RsA0N46Mows/v6i+/HTZ0uWt6J1bv74R30gef5n8/GWpU1OTrr+/n7fse7bt8+/160TdaiDg4Or748fPx5vscJGKHS7ZXFx0a+n9dWpJzvxJK1jZXR01NclR2GMlmkdtUujMgo4w8PDvm58fNxvo+NUI+sYIyMjq8ewa2DnYtdC10jzXGxbGRsb89uK6u3cAADtqyu/8uEbVdNvwepQGtV56LdmdarqvNIem37R/fzXi+5rD+yJa6567ZdvutfOvxm/W99Ls+fdPXdsdXt33x3XlKbroA5ZczjsvcKJzelQx6/36miNddLqnJM0oqBtFFJKUZjRcbRPdfRZtFzr6ftjnb1YSKjFj4EdQwEkeS4KPBrxELsuYu1WXXLyrY2GaD8AgPbXcSMjt91yo/vCvXeVXXo+/MF4y/KlA4FCmkJFMeq4rfNWB62RExutqPYWSloyiEg9nsBJhyqdu46rkKbzM7pOOn5ypEjBReGoWKgCALSf9g0j0S/6+m2/2uKf+61QqeCRRZ30gQMH/GiPRgr0Wrc6VN8uLPQkw4hodCsZRhREdP3SgQYA0L5aOoz86Ec/8p13upw6dSpeo/lp5EO3MNQJ2zwLC0LtODqQDmoKIzYaIgorCiKVBjoAQOtq6TDyxS9+0Xfg6fLZz342XqP5aVRAnbHmhWg+RzsEEJ1Pmo2IpM9PoUOBRGGEWzQA0JlaOozcdtttvuNKl+3bt8drND/ruLNGArI69UZTGzTaVMkjwOlHkrWdQpe+N/bUTJJGQhRCtB23aACg81zzaCR+XZWTJ0+6LVu2+A6nEQ4fPuw7yd27d8c1V52bv+CW3rnkdt6xLa7ZuOfOzbvc9d3uzm2b45ri1JlqBODy5cuuu7vbf7WRD70XXSfNBdGyPXv2+M5XdeqMtY6NDuj8pqen/TZaVx36jh07VvejY50+fdofT8tUtEzbqE771fdD9ceOHfP12rf2Ze3RPrTc2qOv6bCg7dQWbaN9lvr+2rlpm4WFBX8Mnf/Bgwf98hMnTvg2pWk+ibbVdgoie/fujZcAADpCvkaiTio/MjISv6s/Nf3o0aPxu7V++OQL+e9MPJ7/w6V3qy7aj/ZXjqiz9u1SiTr1/PDw8Op7LRsdHV3z3oyPj+ejDnl1mYqu59jYmN+P1c3MzPj1Z2dn16ybVXRsiTr3gmXaZ7ItVpJtMouLi359LbPjF6M2az/ad/JaqA1qcynWHl0LAEBnaenPGYnCiPvmN78Z11ylzxl5fWHRPfJA4ahJpb57etrd+omesj9npBoafVCpx+O2jaCfAY3K2I+URl30M1EOjdKo6EPfAACdpeM+Z6SZ5XK5lg0iWcoNIqJbU8wVAYDORBhBEJpLopEQsTkvhBEA6EyEEVRNk1Z1e0a3mESvVVeKPtjNPhpfrzUxttTkWABA+2rjMFL4aaobKStzMFGKwoTmiyhYiF6rlKLPgxH7mzX8HRoA6FyMjKBqChL65Nh0KUUTnW09feCb5ssAADpT2z5N8+y5eXdXb+FnWlTq7NyvKvqrvQAAoDJtOTJyw0c+5HLXX+fO/+Z3VRftR/sDAAD10ZYjIwAAoHUwZwQAAARFGAEAAEERRgAAQFCEEQAAEBRhBAAABEUYAQAAQRFGAABAUIQRAAAQFGEEAAAERRgBAABBEUYAAEBQhBEAABAUYQQAAARFGAEAAEERRgAAQFCEEQAAEBRhBAAABEUYAQAAQRFGAABAUIQRAAAQFGEEAAAERRgBAABBtWUYefWNC+6x6ReLlud/Nh+vCQAAQmvLMHJu/oKbfmnO/eLCYkF59ty8+96PnnL/+MJr8doAACCktr1Nc8vHP+q+vvfzBeXuvltc96Zr3fd/8iyBBACAJtCRc0YUVB68/x4CCQAATaCtw0g+ny8oUa1ftutTf+m+ct9OH0ieeP5nvg4AADReR46MmHs/fasPJD944jkCCQAAgXR0GJF2CSRzc3NuamrKlzNnzsS1G5PcV632CQBAMR0fRqQdAsnx48fd0NCQLwMDA3HtxiT3Vat9AgBQTNuGET87JPpPQSmybNenokDyb+NA8lzrBZLR0dHoPPJuZGQkrtk425eVwcHBeAkAALXHyEjCLo2QKJD8Y2sGEgAAWhFhJKVWgWRpacnPtdBXo/eaj1GKzdFYbz1jx6lkTocdo5nmgWzkPAAA7aGtw4i/HZMqJmuZlc9EgeTLcSD5SQWBpKuryxfNr+jr6/NzLfR1YmLC9fT0rM69yOpwjxw5srqObXfgwIE1YSZJ9Vqe3K++lgoxmguSPIa2Kdaeetq/f//qtdJ5Hjp0aM152DUzem3rW7E2a/1kvfYNAGgtHTkycv43S+5/nH6yZHlp7rzr3vQB93+iQFLu37KZnJx0/f39vqPct2+ff5/L5XwHqXkX9l6hIEmdsYrWmZmZcbOzs37uh9bL6lwVRNRxa7nW037Hx8d9fbITT1LYUXixdiwuLrqxsTEfXrSvYqGnHjQnxa6Vjq+2Jc/Drpmdi7VZ17S3t3d1W9E52DwZ1WvfAIAWk6+RqMPIR51C/K7+1PSjR4/G79b64ZMv5I/93eP5i5ffKygvvHY+//0nniu7PPrd035/5dJ1iDrM+N3K+6hzzUedv3+va6Q6EwUPfy5RRxvXXBV1rH5Z1OHGNSuGh4d9fdT5xjUrdAwdK/1tLXUM7UPLdKxi1N70PmvB9hsFkLhmhc5D1zB5HcXaqvNJ0nllnRsAoDV03MjIbbfc6L5w711ll54PfzDesnxRJxu/WqHf4vXbfhb77T/rN3r9xq+RgPRoh97rGOnj6BgaPUizkZisY2gfOobma4SSbrPOQ+euUZNku6ytyZElGw1KXwsAQOtgAmsdFAseWWzugzrZLOmgoPXVAdttirSsY9sxNBcjOb/Cijr9Rt6mKYddj3RIGh4eXhNGFESKhTAAQGto6TDyrW99K7Nz1RyEFX5Uv8pSX+UEl+Q6lQQdY9totKFYUSffjNLnq3Ym58YorCiIbOS6AACaQ0uHkaNHj/pJi+ny0EMPxWs0PxsBSN+KEXW6GtVI3oLQ+up4bbQjLet2i42iaD+6VZMu6uBD3ubIGpWx80i3S+eu9up6WSjhFg0AtLaWDiM7d+70HVG6bN++3Q9qaJprtaXegyPqWNXBajQn3SnrCRvVpW9BaBt11ukAo/dZIcWOoadpsh791dM0WlYrarP2qdtCxUJT0tWRrBXaRrdi9L3Muh2l66Fz1XY6L27RAEBru+bRSPy6KidPnnRbtmzxHUgjHD582D388MOZcy3OzV9wv3vnktt5x7a4ZuOeOzfvPnp9t7tz2+a4pjh1jgoJly9fdt3d3f6rOlV1znovuk4KBFq2Z88eX68OVeupg9V7Ldf5aV0FCd1GSVIHreMcO3bM70e0/cGDB/2+VKei/Whd7VPfF61j7RHtQ4FHnb+OYR2/3mvfWq4yPT3tt9E+rU7vd+zY4ddP0/pqv9ZRe4r9TNi10PoLCwu+nXYecuLECf8zlabvubbVdgoie/fujZcAAFpS/FRN1aIOp+GP9k6mHm01/tHeicfz71x6t+qi/ZT7aG/U8dpYSj7q2FcfwVXRstH4UV17n6Rz0TbJ5aWupx5/Te9f65c6hh6JjTrv1eUqUcde8Git9pNcJ6uk952ktulctM7MzExcW0g/M9qX2qx1bd9qY/rx3TQ7z3TbAQCtp0v/if6nXjUNy+s3a81BaARNVNX8kKzfuh+bftG9vrDoHnlgd1yzcd89Pe1u/USP27v77rimvjSaoJI14lOMRjJsVKNcG9mm1vQzo1EW+xGspE0ahVKJgk9cAwBoVTza22RyuVxFQUQ2EipCB5EslbRJt7SYKwIA7YEwgpaguSQ20VUjKCqEEQBoD4QRNJwmrdokWNFr1ZWip31ssq39jZ1iE2MBAK2FMIKGU5jQfBEFC9FrlVL0tI/or/SK/qAeAKA9tHEYyfuJkdWWlQc8UEsKEvYBdclSiiZG23r6y8aaWwMAaA9t+zTNs+fm3V29hZ9RUamzc79y99yxtWFP0wAA0GnacmTkjq2bfYC49s+vqbpoP9ofAACoj7YcGQEAAK2DCawAACAowggAAAiKMAIAAIIijAAAgKAIIwAAICjCCAAACIowAgAAgiKMAACAoAgjAAAgKMIIAAAIijACAACCIowAAICgCCMAACAowggAAAiKMAIAAIIijAAAgKAIIwAAICjCCAAACIowAgAAgiKMAACAoAgjAAAgqLYMI2+9fdG9+saFokXLAQBAc+jKR+LXVRkaGnL9/f1udHQ0rqmvrq4uNzk56QYHB+Oaqx6bftFNzbwSvyvUvela91++cp/bemMurgEAAKG07W2a22+50R39xoMF5f6dd7pLf3rX/bcfPOHm31yK1wYAAKF05JwRBZW7+24mkAAA0AQ6dgLrg/ffQyABAKAJtHUY0XSYdIlqV5d95b6dcSD5CYEEAIBAOnZkxKwEklsIJAAABNLxYUQIJAAAhNO2YcRuyJRbvhwFkr8KGEgmJib848pzc3NxDQAAnYGRkQSNkIQKJGfOnPFfCSMAgE5DGEmpZSBRwJiamvJFr5eWllZDRy3ZMTYSZGxbtS0t3f5yqR3J9mjfpY4jGzlOpawd9TwGAGAD8jUyODiYHxkZid/Vn5o+OTkZv1vrh0++kD/2d4/n//in9wrK9594ruiyZPmf//eZ/Mh//0H+jQuL8V7LNz4+nu/t7U3fCcrncjn/1YyNjRWsky7appjR0dHVfVoZHh7OLy5ebfPMzMya5Sqq0/cqua1eq97o+5ncxtbRMYvRcdPb6X3yOP39/fHaK3QN0uegdZJt2Yh9+/at7k/fC51v8hiq0/fJ6HVyuYq1Qe1J1mvfAIDa6ciRkcXfX3Q/fvpsydK96QN+3UpHSDQacODAARd1di7q4Nzs7Kwvep0WdWr+I+1VohDh6/Rx+lZnJcuhQ4d80cfhR52mP0bU4brjx4+7/fv3x2s5/xH9th87htp35MgRf3y1S9ulR200giDadxQy/PY6lo6p+S1ZdFztw85BX5P70XHUHqM2qC3ar9bXcaJw4q+h/rxAsVGUclgbdDztT8fS8VWnc44CkG+vnYu1QddE3zvbVtQmbSuq174BADUUh5Kq6Tfg6H/Y8bv6U9OjjiF+t5aNjFz803sF5fHnzvll5RaNjmh/5VKbirVN16fYJbdlxc4pKQoeRX9DjzpKv0wjDml2jKzl6ZEIjRSopGlEQSMFaXbe6Z8BO2Z6/6XOwfalc6mWfi61r/S5aBRH56KSZMdW+5LUzqy2AgCq195h5HIUQKos2k8lYUSdnG47qJNTZ6o2qs6WpTtlU0kYscCR7jCNjq3vR5odI2tZKWqTwou21761j7Ri7df7rHpbv9JzqJSFkSw6p6y26dhqn9H3TetlBTwAQPXa9zZN1H1E51d18eMIFdDwf9S5+SF+3dLQ7Yaenh7X19fn32t5tex2StRp+q9pqrfbI1l0K2I9drtJjxvrHOzWjk1KTYs6ff81fVx7nz5vOwddFx0jXXScam7TlMOuX7rNup2l211Gt3LU/nKuGwCgci0dRqyzT5dTp07Fa4ShIKJ5CQozCibRb9S+I1OnNzAwUPXTHOUEmlLrFAsxRu1TO9UJj8TzLCycWehIU732q05cReeq8KKiZTb/wlj7tP9ixea41Fv6Wum4CkI2n0Tnou9fOdcdAFC5lg0j6qysk0uXmzbfFK/VeOrI9Zu9/batNqpz06RHTeJUh6YOulwKV8nf0sXCRNZEUpuIWiw0lEPH037UXrW73H1pG52fRlHUbptgq2CWpu+TaLmOkS66ZtWcQ1rWKEvye5Skc9DxdX0tlNSyLQCAtVo2jGR1YFbuu/++eK3Gs04vK3Cok1PJ6hizRisUKtRhpm+NqKO0UJPelwKA6qq5pWD71DHSstputEyjQLOzs340xb5m7cfOQcEl69aPwoyWZdFxtFy3eModZUp/P7SdQpdChgWjJF0/hRBtp3ZyiwYA6ueaRyPx66qcPHnSbdmypSl+gzw3f8EtvXPJ7bxjW1yzcc+dm3e567vdnds2xzWlqWPVtdDX6elpd/nyZd95qmM7fPiwr1Ng2rFjR7zFCnV4x44dcy+//LJ/rfW0/sLCgjtx4sSaDr27u9u/V2eq/eq9jqf1dWx19Bo5Eh1b+z19+rTvgLWe1tf+bWQgHYS0b+3H9p1uv+i8tD+dh9YRbaPlWl/H0XIVrZs+hrbRz4rOwUZiRG1SoNJ2OoesoGDXRtuoraV+5pLfC11LHVfHO3jwoF+ua6uf2zS1185HQWTv3r3xEgBAzeVrJOoQ1jyBEJKefvnOxOP5P1x6t+qi/Wzk0d4ocKw+eWIl6lgzH5c1eloj6lxX19f22l8xWqZ92vraNv090NM7tjyrRB1tvOZaame6/foeq43JY9rTQfqabHu6aFnW0yh6mkZtSK6r45a6Tnq6RW3QPu34xajN2qe+H8n26ZjFnuQx2kbrlmoLAKB6XfpP9D/cqmnYXL/F6rf+0B6bftG9vrDoHnlgd1yzcd89Pe1u/USP27v77rhmffYbu73Wb+a6NuXS+tre9rEeHUNFv83XWjn71nLdMtEIhW7TpNut89FohG556LZNsZEMjYZUcp3KoZ9LjbbYj3klx1B7VaLwE9cAAOqhIz+Btd6SnbFeV9rBquMvN4iI1q1HEJFy9q0OXoFEQTSr3dpey3Qd7NZQlloHkSyVHEO3ppgrAgD1RxhB1SyAaASkGBthaWY2eiMKWCqEEQCoP8IIqqbRBnXa9jhvcvRDHbo6eH1uicKITaytNwUjtcMCkF6XCkuip3ds8qxe63ZSsVtKAIDaaeMwUvhpqhspK/MdsR59loiChkYXFErsk1QVQuzzRvSobyW3n6phn3WiYCF6rVKKBSW1WXROAID6a+MJrG+5//yl6iewfu/vNYH1hoomsHa69LwQ/Vw0KoQYjYhYEDGau7Le/BdrOyMiANA4bRtGnj037+7qLfz8iEqdnfuVu+eOrYQRAADqpC3DyE/PzrmZV34Rv6vewCe3u8/dVZ+nVQAA6HRtGUYAAEDr4GkaAAAQFGEEAAAERRgBAABBEUYAAEBQhBEAABAUYQQAAARFGAEAAEERRgAAQFCEEQAAEBRhBAAABEUYAQAAQRFGAABAUIQRAAAQFGEEAAAERRgBAABBdeUj8euqDA0Nuf7+fjc6OhrXXPXqGxfcufkL8btCN3zkQ+5zd/XG7wAAQCdpyMiIgsgTz7/mXphbKChP/cvP3f977mfxmgAAoNM07DbNhz90nRvYcWdB2XxDzi0v12RwBgAAtKCGhRHdDHrvynJBWY4W1OZGEQAAaEV1nzPy1tsX3emnXnLnfvlb17ft5rj2qoU333J/vHzZPfw3n4lryrd1c85dt+na+B0AAGhFdQ8jj02/6KZmXonf1dY3vnyfu3Pb5vgdAABoRQ0JI8/PLrjP/ptPxjW18fQLr7j99/81YQQAgBbXkDkj+ejf+8u1LfoHAABaX2PCSJQb3r+yXNPCpFcAANpDw8LIleV8TQthBACA9tCYR3uj5HDlSm0LaQQAgPbQkDCyHJX3l5drWrRPAADQ+ho0MlL72zTMXwUAoD00Zs5I9C9rEmo1ZSNP0ywtLflHkPv6+tyZM2fi2tIq3WYjxwAAoJPVNIxMTEz4jjhZTp065fRRJlmBopqykY9HUTiYmppyc3Nzvq3lqHSbjRwDAIBOVrMwsm/fPl/0wWfJctPmm/xc06xbLdWUjcxftTblcjnf1nJUus1GjgEAQCer2SewFqNPYH3qX+fd1q1b45ramJ+fd//pbwb4BFYAAFpcY+aMRHkna3SjmlLnDAUAABqkQWHEuStXlmtayCIAALSHxj1Nk/FZIdWUjTxNAwAAmk8DR0byNS2MjAAA0B4aFkay/vJuNYUwAgBAe2jQbZo6PNq7smsAANDiGhJGlpevuMuX/ljTon0CAIDWV/fPGfnp2Tn3/X86G7+rrYMPft5tvTEXvwMAAK2o7mEEAACglIbcpgEAACiGMAIAAIIijAAAgKAIIwAAICjCCAAACIowAgAAgiKMAACAoAgjAAAgKMIIAAAIijACAACCIowAAICgCCMAACAowggAAAiKMAIAAIIijAAAgKAIIwAAICjCCAAACIowAgAAgiKMAACAoAgjAAAgKMIIAAAIijACAACCIowAAICgCCMAACAowggAAAjIuf8PGmvcD4AAfH4AAAAASUVORK5CYII=;imageBorder=default;" vertex="1" parent="rnFfyLZnU6G94Pxc_LtT-8">
          <mxGeometry width="547" height="342" as="geometry" />
        </mxCell>
        <mxCell id="hOOozsf0WDHDU4rZZig0-27" value="" style="endArrow=classic;html=1;rounded=0;entryX=0;entryY=0.5;entryDx=0;entryDy=0;" edge="1" parent="rnFfyLZnU6G94Pxc_LtT-8" target="hOOozsf0WDHDU4rZZig0-43">
          <mxGeometry width="50" height="50" relative="1" as="geometry">
            <mxPoint x="99" y="61" as="sourcePoint" />
            <mxPoint x="158" y="61.435459610027806" as="targetPoint" />
          </mxGeometry>
        </mxCell>
        <mxCell id="hOOozsf0WDHDU4rZZig0-29" value="" style="endArrow=classic;html=1;rounded=0;entryX=0;entryY=0.5;entryDx=0;entryDy=0;" edge="1" parent="rnFfyLZnU6G94Pxc_LtT-8" target="hOOozsf0WDHDU4rZZig0-10">
          <mxGeometry width="50" height="50" relative="1" as="geometry">
            <mxPoint x="200" y="107.87" as="sourcePoint" />
            <mxPoint x="270" y="109.87" as="targetPoint" />
          </mxGeometry>
        </mxCell>
        <mxCell id="hOOozsf0WDHDU4rZZig0-31" value="" style="endArrow=classic;html=1;rounded=0;entryX=0;entryY=0.5;entryDx=0;entryDy=0;" edge="1" parent="rnFfyLZnU6G94Pxc_LtT-8" target="hOOozsf0WDHDU4rZZig0-45">
          <mxGeometry width="50" height="50" relative="1" as="geometry">
            <mxPoint x="190" y="210" as="sourcePoint" />
            <mxPoint x="370" y="208.87" as="targetPoint" />
          </mxGeometry>
        </mxCell>
        <mxCell id="hOOozsf0WDHDU4rZZig0-32" value="" style="endArrow=classic;html=1;rounded=0;entryX=0;entryY=0.5;entryDx=0;entryDy=0;" edge="1" parent="rnFfyLZnU6G94Pxc_LtT-8" target="hOOozsf0WDHDU4rZZig0-46">
          <mxGeometry width="50" height="50" relative="1" as="geometry">
            <mxPoint x="210" y="265" as="sourcePoint" />
            <mxPoint x="310" y="264.87" as="targetPoint" />
          </mxGeometry>
        </mxCell>
        <mxCell id="hOOozsf0WDHDU4rZZig0-10" value="Client classes" style="rounded=0;whiteSpace=wrap;html=1;fontFamily=Verdana;fontSize=16;fontStyle=0" vertex="1" parent="rnFfyLZnU6G94Pxc_LtT-8">
          <mxGeometry x="270" y="90" width="270" height="35.87" as="geometry" />
        </mxCell>
        <mxCell id="hOOozsf0WDHDU4rZZig0-43" value="&lt;font style=&quot;font-size: 16px;&quot;&gt;Source code root path&lt;/font&gt;" style="rounded=0;whiteSpace=wrap;html=1;align=center;fontFamily=Verdana;fontSize=16;fontStyle=0" vertex="1" parent="rnFfyLZnU6G94Pxc_LtT-8">
          <mxGeometry x="270" y="43" width="269" height="35.87" as="geometry" />
        </mxCell>
        <mxCell id="hOOozsf0WDHDU4rZZig0-45" value="Model classes" style="rounded=0;whiteSpace=wrap;html=1;fontFamily=Verdana;fontSize=16;fontStyle=0" vertex="1" parent="rnFfyLZnU6G94Pxc_LtT-8">
          <mxGeometry x="270" y="192" width="270" height="35" as="geometry" />
        </mxCell>
        <mxCell id="hOOozsf0WDHDU4rZZig0-46" value="Storage manager class" style="rounded=0;whiteSpace=wrap;html=1;fontFamily=Verdana;fontSize=16;fontStyle=0" vertex="1" parent="rnFfyLZnU6G94Pxc_LtT-8">
          <mxGeometry x="270" y="247" width="270" height="35.87" as="geometry" />
        </mxCell>
        <mxCell id="rnFfyLZnU6G94Pxc_LtT-2" value="" style="endArrow=classic;html=1;rounded=0;entryX=0;entryY=0.5;entryDx=0;entryDy=0;" edge="1" parent="rnFfyLZnU6G94Pxc_LtT-8" target="rnFfyLZnU6G94Pxc_LtT-3">
          <mxGeometry width="50" height="50" relative="1" as="geometry">
            <mxPoint x="170" y="161.13" as="sourcePoint" />
            <mxPoint x="370" y="161.13" as="targetPoint" />
          </mxGeometry>
        </mxCell>
        <mxCell id="rnFfyLZnU6G94Pxc_LtT-3" value="Client application main program" style="rounded=0;whiteSpace=wrap;html=1;fontFamily=Verdana;fontSize=16;fontStyle=0" vertex="1" parent="rnFfyLZnU6G94Pxc_LtT-8">
          <mxGeometry x="270" y="142.26" width="270" height="35.87" as="geometry" />
        </mxCell>
      </root>
    </mxGraphModel>
  </diagram>
</mxfile>
